<svg xmlns="http://www.w3.org/2000/svg" width="860" height="560" viewBox="0 0 860 560">
<style>text{font-family:Arial,sans-serif;fill:#111827}.tick{font-size:12px;fill:#4b5563}.label{font-size:14px;font-weight:600}.title{font-size:21px;font-weight:700}.caption{font-size:12px;fill:#4b5563}</style>
<rect width="100%" height="100%" fill="#fff"/>
<text class="title" x="430.0" y="32" text-anchor="middle">Local 4090 IsoFLOPs Model-Size Scaling</text>
<rect x="92" y="58" width="732" height="426" fill="#f8fafc" stroke="#cbd5e1"/>
<line x1="92.00" y1="58" x2="92.00" y2="484" stroke="#e5e7eb"/>
<text class="tick" x="92.00" y="506" text-anchor="middle">1e9</text>
<line x1="336.00" y1="58" x2="336.00" y2="484" stroke="#e5e7eb"/>
<text class="tick" x="336.00" y="506" text-anchor="middle">1e10</text>
<line x1="580.00" y1="58" x2="580.00" y2="484" stroke="#e5e7eb"/>
<text class="tick" x="580.00" y="506" text-anchor="middle">1e11</text>
<line x1="824.00" y1="58" x2="824.00" y2="484" stroke="#e5e7eb"/>
<text class="tick" x="824.00" y="506" text-anchor="middle">1e12</text>
<line x1="92" y1="484.00" x2="824" y2="484.00" stroke="#e5e7eb"/>
<text class="tick" x="82" y="488.00" text-anchor="end">1e3</text>
<line x1="92" y1="58.00" x2="824" y2="58.00" stroke="#e5e7eb"/>
<text class="tick" x="82" y="62.00" text-anchor="end">1e4</text>
<path d="M 92.00 276.36 L 98.15 276.36 L 104.30 276.36 L 110.45 276.36 L 116.61 276.36 L 122.76 276.36 L 128.91 276.36 L 135.06 276.36 L 141.21 276.36 L 147.36 276.36 L 153.51 276.36 L 159.66 276.36 L 165.82 276.36 L 171.97 276.36 L 178.12 276.36 L 184.27 276.36 L 190.42 276.36 L 196.57 276.36 L 202.72 276.36 L 208.87 276.36 L 215.03 276.36 L 221.18 276.36 L 227.33 276.36 L 233.48 276.36 L 239.63 276.36 L 245.78 276.36 L 251.93 276.36 L 258.08 276.36 L 264.24 276.36 L 270.39 276.36 L 276.54 276.36 L 282.69 276.36 L 288.84 276.36 L 294.99 276.36 L 301.14 276.36 L 307.29 276.36 L 313.45 276.36 L 319.60 276.36 L 325.75 276.36 L 331.90 276.36 L 338.05 276.36 L 344.20 276.36 L 350.35 276.36 L 356.50 276.36 L 362.66 276.36 L 368.81 276.36 L 374.96 276.36 L 381.11 276.36 L 387.26 276.36 L 393.41 276.36 L 399.56 276.36 L 405.71 276.36 L 411.87 276.36 L 418.02 276.36 L 424.17 276.36 L 430.32 276.36 L 436.47 276.36 L 442.62 276.36 L 448.77 276.36 L 454.92 276.36 L 461.08 276.36 L 467.23 276.36 L 473.38 276.36 L 479.53 276.36 L 485.68 276.36 L 491.83 276.36 L 497.98 276.36 L 504.13 276.36 L 510.29 276.36 L 516.44 276.36 L 522.59 276.36 L 528.74 276.36 L 534.89 276.36 L 541.04 276.36 L 547.19 276.36 L 553.34 276.36 L 559.50 276.36 L 565.65 276.36 L 571.80 276.36 L 577.95 276.36 L 584.10 276.36 L 590.25 276.36 L 596.40 276.36 L 602.55 276.36 L 608.71 276.36 L 614.86 276.36 L 621.01 276.36 L 627.16 276.36 L 633.31 276.36 L 639.46 276.36 L 645.61 276.36 L 651.76 276.36 L 657.92 276.36 L 664.07 276.36 L 670.22 276.36 L 676.37 276.36 L 682.52 276.36 L 688.67 276.36 L 694.82 276.36 L 700.97 276.36 L 707.13 276.36 L 713.28 276.36 L 719.43 276.36 L 725.58 276.36 L 731.73 276.36 L 737.88 276.36 L 744.03 276.36 L 750.18 276.36 L 756.34 276.36 L 762.49 276.36 L 768.64 276.36 L 774.79 276.36 L 780.94 276.36 L 787.09 276.36 L 793.24 276.36 L 799.39 276.36 L 805.55 276.36 L 811.70 276.36 L 817.85 276.36 L 824.00 276.36" fill="none" stroke="#2563eb" stroke-width="3"/>
<circle cx="208.42" cy="276.36" r="5.5" fill="#dc2626"/>
<circle cx="336.00" cy="276.36" r="5.5" fill="#dc2626"/>
<circle cx="452.42" cy="276.36" r="5.5" fill="#dc2626"/>
<circle cx="580.00" cy="276.36" r="5.5" fill="#dc2626"/>
<circle cx="696.42" cy="276.36" r="5.5" fill="#dc2626"/>
<circle cx="824.00" cy="276.36" r="5.5" fill="#dc2626"/>
<line x1="824.00" y1="58" x2="824.00" y2="484" stroke="#64748b" stroke-dasharray="6 5"/>
<text class="label" x="458.0" y="536" text-anchor="middle">Compute C = 6ND, log scale</text>
<text class="label" x="24" y="271.0" text-anchor="middle" transform="rotate(-90 24 271.0)">N_opt non-embedding parameters</text>
<text class="caption" x="92" y="512">log10(y) = 3.4874 + 0.0000 log10(C), R2 = 0.0000</text>
</svg>
