<svg xmlns="http://www.w3.org/2000/svg" width="900" height="620" viewBox="0 0 900 620">
<style>
text { font-family: Arial, sans-serif; fill: #202124; }
.tick { font-size: 12px; fill: #4b5563; }
.axis-label { font-size: 15px; font-weight: 600; }
.title { font-size: 22px; font-weight: 700; }
.caption { font-size: 13px; fill: #4b5563; }
</style>
<rect width="100%" height="100%" fill="#ffffff"/>
<text class="title" x="450.0" y="32" text-anchor="middle">IsoFLOPs Scaling Law for Dataset Size</text>
<rect x="96" y="62" width="768" height="476" fill="#f8fafc" stroke="#cbd5e1"/>
<line x1="96.00" y1="62" x2="96.00" y2="538" stroke="#e2e8f0"/>
<text class="tick" x="96.00" y="562" text-anchor="middle">1e18</text>
<line x1="224.00" y1="62" x2="224.00" y2="538" stroke="#e2e8f0"/>
<text class="tick" x="224.00" y="562" text-anchor="middle">1e19</text>
<line x1="352.00" y1="62" x2="352.00" y2="538" stroke="#e2e8f0"/>
<text class="tick" x="352.00" y="562" text-anchor="middle">1e20</text>
<line x1="480.00" y1="62" x2="480.00" y2="538" stroke="#e2e8f0"/>
<text class="tick" x="480.00" y="562" text-anchor="middle">1e21</text>
<line x1="608.00" y1="62" x2="608.00" y2="538" stroke="#e2e8f0"/>
<text class="tick" x="608.00" y="562" text-anchor="middle">1e22</text>
<line x1="736.00" y1="62" x2="736.00" y2="538" stroke="#e2e8f0"/>
<text class="tick" x="736.00" y="562" text-anchor="middle">1e23</text>
<line x1="864.00" y1="62" x2="864.00" y2="538" stroke="#e2e8f0"/>
<text class="tick" x="864.00" y="562" text-anchor="middle">1e24</text>
<line x1="96" y1="538.00" x2="864" y2="538.00" stroke="#e2e8f0"/>
<text class="tick" x="84" y="542.00" text-anchor="end">1e8</text>
<line x1="96" y1="419.00" x2="864" y2="419.00" stroke="#e2e8f0"/>
<text class="tick" x="84" y="423.00" text-anchor="end">1e9</text>
<line x1="96" y1="300.00" x2="864" y2="300.00" stroke="#e2e8f0"/>
<text class="tick" x="84" y="304.00" text-anchor="end">1e10</text>
<line x1="96" y1="181.00" x2="864" y2="181.00" stroke="#e2e8f0"/>
<text class="tick" x="84" y="185.00" text-anchor="end">1e11</text>
<line x1="96" y1="62.00" x2="864" y2="62.00" stroke="#e2e8f0"/>
<text class="tick" x="84" y="66.00" text-anchor="end">1e12</text>
<path d="M 96.00 452.34 L 100.83 449.95 L 105.66 447.57 L 110.49 445.18 L 115.32 442.80 L 120.15 440.41 L 124.98 438.03 L 129.81 435.64 L 134.64 433.25 L 139.47 430.87 L 144.30 428.48 L 149.13 426.10 L 153.96 423.71 L 158.79 421.32 L 163.62 418.94 L 168.45 416.55 L 173.28 414.17 L 178.11 411.78 L 182.94 409.39 L 187.77 407.01 L 192.60 404.62 L 197.43 402.24 L 202.26 399.85 L 207.09 397.46 L 211.92 395.08 L 216.75 392.69 L 221.58 390.31 L 226.42 387.92 L 231.25 385.53 L 236.08 383.15 L 240.91 380.76 L 245.74 378.38 L 250.57 375.99 L 255.40 373.61 L 260.23 371.22 L 265.06 368.83 L 269.89 366.45 L 274.72 364.06 L 279.55 361.68 L 284.38 359.29 L 289.21 356.90 L 294.04 354.52 L 298.87 352.13 L 303.70 349.75 L 308.53 347.36 L 313.36 344.97 L 318.19 342.59 L 323.02 340.20 L 327.85 337.82 L 332.68 335.43 L 337.51 333.04 L 342.34 330.66 L 347.17 328.27 L 352.00 325.89 L 356.83 323.50 L 361.66 321.12 L 366.49 318.73 L 371.32 316.34 L 376.15 313.96 L 380.98 311.57 L 385.81 309.19 L 390.64 306.80 L 395.47 304.41 L 400.30 302.03 L 405.13 299.64 L 409.96 297.26 L 414.79 294.87 L 419.62 292.48 L 424.45 290.10 L 429.28 287.71 L 434.11 285.33 L 438.94 282.94 L 443.77 280.55 L 448.60 278.17 L 453.43 275.78 L 458.26 273.40 L 463.09 271.01 L 467.92 268.63 L 472.75 266.24 L 477.58 263.85 L 482.42 261.47 L 487.25 259.08 L 492.08 256.70 L 496.91 254.31 L 501.74 251.92 L 506.57 249.54 L 511.40 247.15 L 516.23 244.77 L 521.06 242.38 L 525.89 239.99 L 530.72 237.61 L 535.55 235.22 L 540.38 232.84 L 545.21 230.45 L 550.04 228.06 L 554.87 225.68 L 559.70 223.29 L 564.53 220.91 L 569.36 218.52 L 574.19 216.13 L 579.02 213.75 L 583.85 211.36 L 588.68 208.98 L 593.51 206.59 L 598.34 204.21 L 603.17 201.82 L 608.00 199.43 L 612.83 197.05 L 617.66 194.66 L 622.49 192.28 L 627.32 189.89 L 632.15 187.50 L 636.98 185.12 L 641.81 182.73 L 646.64 180.35 L 651.47 177.96 L 656.30 175.57 L 661.13 173.19 L 665.96 170.80 L 670.79 168.42 L 675.62 166.03 L 680.45 163.64 L 685.28 161.26 L 690.11 158.87 L 694.94 156.49 L 699.77 154.10 L 704.60 151.72 L 709.43 149.33 L 714.26 146.94 L 719.09 144.56 L 723.92 142.17 L 728.75 139.79 L 733.58 137.40 L 738.42 135.01 L 743.25 132.63 L 748.08 130.24 L 752.91 127.86 L 757.74 125.47 L 762.57 123.08 L 767.40 120.70 L 772.23 118.31 L 777.06 115.93 L 781.89 113.54 L 786.72 111.15 L 791.55 108.77 L 796.38 106.38 L 801.21 104.00 L 806.04 101.61 L 810.87 99.22 L 815.70 96.84 L 820.53 94.45 L 825.36 92.07 L 830.19 89.68 L 835.02 87.30 L 839.85 84.91 L 844.68 82.52 L 849.51 80.14 L 854.34 77.75 L 859.17 75.37 L 864.00 72.98" fill="none" stroke="#2563eb" stroke-width="3"/>
<circle cx="195.60" cy="404.96" r="5.5" fill="#dc2626" stroke="#7f1d1d" stroke-width="1"/>
<title>C=6.0000e+18, value=1.3122e+09</title>
<circle cx="224.00" cy="381.50" r="5.5" fill="#dc2626" stroke="#7f1d1d" stroke-width="1"/>
<title>C=1.0000e+19, value=2.0662e+09</title>
<circle cx="285.07" cy="358.03" r="5.5" fill="#dc2626" stroke="#7f1d1d" stroke-width="1"/>
<title>C=3.0000e+19, value=3.2534e+09</title>
<circle cx="323.60" cy="334.57" r="5.5" fill="#dc2626" stroke="#7f1d1d" stroke-width="1"/>
<title>C=6.0000e+19, value=5.1228e+09</title>
<circle cx="352.00" cy="334.57" r="5.5" fill="#dc2626" stroke="#7f1d1d" stroke-width="1"/>
<title>C=1.0000e+20, value=5.1228e+09</title>
<circle cx="413.07" cy="308.59" r="5.5" fill="#dc2626" stroke="#7f1d1d" stroke-width="1"/>
<title>C=3.0000e+20, value=8.4691e+09</title>
<circle cx="451.60" cy="281.35" r="5.5" fill="#dc2626" stroke="#7f1d1d" stroke-width="1"/>
<title>C=6.0000e+20, value=1.4345e+10</title>
<circle cx="480.00" cy="254.12" r="5.5" fill="#dc2626" stroke="#7f1d1d" stroke-width="1"/>
<title>C=1.0000e+21, value=2.4298e+10</title>
<circle cx="541.07" cy="226.88" r="5.5" fill="#dc2626" stroke="#7f1d1d" stroke-width="1"/>
<title>C=3.0000e+21, value=4.1156e+10</title>
<line x1="736.00" y1="62" x2="736.00" y2="538" stroke="#64748b" stroke-dasharray="6 5"/>
<line x1="864.00" y1="62" x2="864.00" y2="538" stroke="#64748b" stroke-dasharray="6 5"/>
<line x1="96" y1="538" x2="864" y2="538" stroke="#0f172a" stroke-width="1.5"/>
<line x1="96" y1="62" x2="96" y2="538" stroke="#0f172a" stroke-width="1.5"/>
<text class="axis-label" x="480.0" y="596" text-anchor="middle">Compute budget C (FLOPs, log scale)</text>
<text class="axis-label" x="22" y="300.0" text-anchor="middle" transform="rotate(-90 22 300.0)">D_opt tokens (log scale)</text>
<text class="caption" x="96" y="566">Red points: lowest-loss run per IsoFLOPs profile. Blue line: log-log least-squares power law. Dashed lines: 1e23 and 1e24 FLOPs.</text>
<text class="caption" x="96" y="582">Fit: log10(y) = -0.8439 + 0.5313 log10(C), R2(log10) = 0.9834</text>
</svg>
